<svg xmlns="http://www.w3.org/2000/svg" viewBox="0 0 64 64" fill="none">
  <rect width="64" height="64" rx="14" fill="#0D4F4F"/>
  <path d="M16 18h24a2 2 0 0 1 2 2v6a2 2 0 0 1-2 2H16a2 2 0 0 1-2-2v-6a2 2 0 0 1 2-2z" fill="#F8F6F0"/>
  <path d="M24 34h24a2 2 0 0 1 2 2v6a2 2 0 0 1-2 2H24a2 2 0 0 1-2-2v-6a2 2 0 0 1 2-2z" fill="#F59E0B"/>
  <circle cx="20" cy="23" r="1.5" fill="#0D4F4F"/>
  <circle cx="25" cy="23" r="1.5" fill="#0D4F4F"/>
  <circle cx="30" cy="23" r="1.5" fill="#0D4F4F"/>
  <rect x="28" y="38" width="14" height="2" rx="1" fill="#0D4F4F"/>
  <path d="M14 28l6 6" stroke="#F8F6F0" stroke-width="2" stroke-linecap="round"/>
  <path d="M50 32l-6-6" stroke="#F8F6F0" stroke-width="2" stroke-linecap="round"/>
  <rect x="18" y="48" width="28" height="3" rx="1.5" fill="#F8F6F0" opacity="0.5"/>
</svg>
